<?xml version="1.0" standalone="no"?>
<!DOCTYPE svg PUBLIC "-//W3C//DTD SVG 20010904//EN"
 "http://www.w3.org/TR/2001/REC-SVG-20010904/DTD/svg10.dtd">
<svg version="1.0" xmlns="http://www.w3.org/2000/svg"
 width="494.000000pt" height="494.000000pt" viewBox="0 0 494.000000 494.000000"
 preserveAspectRatio="xMidYMid meet">
<metadata>
Created by potrace 1.11, written by Peter Selinger 2001-2013
</metadata>
<g transform="translate(0.000000,494.000000) scale(0.100000,-0.100000)"
fill="#000000" stroke="none">
<path d="M3156 4359 c-70 -38 -143 -121 -186 -211 -54 -112 -77 -209 -91 -385
-29 -365 23 -600 351 -1568 139 -410 201 -685 204 -900 1 -125 -26 -217 -96
-321 -84 -126 -204 -217 -428 -326 l-125 -61 109 -14 110 -13 125 60 c242 117
389 241 464 392 72 143 83 256 47 502 -31 205 -75 365 -235 841 -165 493 -223
687 -268 899 -31 145 -32 160 -31 371 0 184 4 236 21 318 31 140 86 249 163
321 34 31 68 56 76 56 28 0 91 -39 123 -75 117 -133 171 -331 171 -625 l0
-170 110 0 110 0 0 194 c0 208 -9 277 -56 418 -31 94 -85 179 -148 235 -73 65
-114 75 -311 80 -159 3 -173 2 -209 -18z"/>
<path d="M1505 3573 c-18 -109 -59 -247 -95 -318 -46 -93 -135 -214 -220 -302
-70 -71 -72 -68 68 -79 l92 -7 48 49 c26 27 65 69 86 94 l37 45 -4 -190 c-4
-179 -6 -198 -40 -325 -83 -314 -219 -554 -387 -683 -29 -22 -31 -27 -15 -27
11 0 62 -5 114 -10 l93 -10 49 41 c122 102 266 335 329 534 13 39 25 73 27 78
2 4 52 -55 110 -130 267 -348 442 -526 698 -710 142 -102 336 -208 473 -258
63 -23 72 -24 157 -14 50 6 97 13 105 15 8 3 -28 22 -81 43 -341 134 -676 391
-968 741 -145 173 -351 452 -351 475 0 3 30 5 68 5 78 0 182 14 267 35 131 33
234 105 283 200 26 47 27 58 27 190 0 145 -16 236 -55 315 -25 48 -47 66 -120
96 -62 25 -67 25 -274 22 -196 -3 -214 -5 -253 -25 l-42 -23 -3 83 c-3 75 -5
82 -23 80 -50 -6 -94 -5 -142 1 l-52 8 -6 -39z m609 -152 c72 -35 87 -56 115
-166 16 -59 21 -110 21 -200 0 -110 -2 -126 -26 -173 -14 -28 -41 -65 -60 -82
-74 -65 -209 -112 -357 -126 l-73 -6 7 58 c4 33 8 153 8 267 1 205 1 209 27
252 47 81 204 203 263 205 7 0 41 -13 75 -29z"/>
<path d="M1276 1371 c-43 -29 -68 -74 -68 -125 0 -49 23 -100 51 -115 15 -8
22 -3 41 31 13 23 23 55 24 72 1 26 5 31 26 31 15 0 26 -6 28 -16 1 -9 -29
-75 -68 -148 -38 -72 -70 -136 -70 -141 0 -7 48 -10 133 -8 l132 3 3 63 3 62
-36 0 c-19 0 -35 2 -35 5 0 3 14 33 31 67 26 52 30 70 26 112 -4 42 -10 55
-45 88 -37 34 -47 38 -94 38 -35 0 -63 -7 -82 -19z"/>
<path d="M1643 1370 c-56 -34 -68 -70 -68 -200 0 -97 3 -120 20 -149 32 -55
68 -75 130 -75 62 0 98 20 130 75 28 48 29 247 2 297 -25 47 -72 72 -132 72
-32 0 -62 -7 -82 -20z m111 -106 c8 -20 8 -168 0 -188 -3 -9 -16 -16 -29 -16
-30 0 -35 16 -35 110 0 94 5 110 35 110 13 0 26 -7 29 -16z"/>
<path d="M2381 1364 c-17 -14 -35 -40 -40 -58 -9 -36 -4 -83 10 -92 5 -3 -1
-20 -13 -37 -31 -43 -32 -124 -2 -163 36 -48 68 -66 120 -67 96 -1 154 56 154
149 0 36 -6 59 -20 77 -16 20 -18 30 -10 52 34 89 -23 165 -124 165 -33 0 -52
-6 -75 -26z m114 -84 c8 -27 -12 -52 -39 -48 -21 3 -32 28 -22 54 8 22 54 18
61 -6z m11 -165 c15 -23 15 -27 0 -50 -11 -17 -26 -25 -44 -25 -35 0 -52 16
-52 50 0 34 17 50 52 50 18 0 33 -8 44 -25z"/>
<path d="M2032 1168 l3 -213 58 -3 57 -3 0 216 0 215 -60 0 -60 0 2 -212z"/>
</g>
</svg>
