<?xml version="1.0" encoding="UTF-8" standalone="no"?>
<svg
   xmlns:dc="http://purl.org/dc/elements/1.1/"
   xmlns:cc="http://creativecommons.org/ns#"
   xmlns:rdf="http://www.w3.org/1999/02/22-rdf-syntax-ns#"
   xmlns:svg="http://www.w3.org/2000/svg"
   xmlns="http://www.w3.org/2000/svg"
   xmlns:sodipodi="http://sodipodi.sourceforge.net/DTD/sodipodi-0.dtd"
   xmlns:inkscape="http://www.inkscape.org/namespaces/inkscape"
   id="Capa_1"
   version="1.1"
   viewBox="0 0 100 100"
   xml:space="preserve"
   sodipodi:docname="deviantart.svg"
   width="100"
   height="100"
   inkscape:version="0.92.2 (5c3e80d, 2017-08-06)"><metadata
     id="metadata42"><rdf:RDF><cc:Work
         rdf:about=""><dc:format>image/svg+xml</dc:format><dc:type
           rdf:resource="http://purl.org/dc/dcmitype/StillImage" /><dc:title></dc:title></cc:Work></rdf:RDF></metadata><defs
     id="defs40" /><sodipodi:namedview
     pagecolor="#ffffff"
     bordercolor="#666666"
     borderopacity="1"
     objecttolerance="10"
     gridtolerance="10"
     guidetolerance="10"
     inkscape:pageopacity="0"
     inkscape:pageshadow="2"
     inkscape:window-width="1920"
     inkscape:window-height="1001"
     id="namedview38"
     showgrid="false"
     inkscape:zoom="2.1034243"
     inkscape:cx="56.098999"
     inkscape:cy="56.098999"
     inkscape:window-x="-9"
     inkscape:window-y="-9"
     inkscape:window-maximized="1"
     inkscape:current-layer="Capa_1" /><g
     id="g5"
     transform="matrix(0.89129738,0,0,0.89129738,-8.9080778e-4,-8.9104687e-4)"><circle
       cx="56.098999"
       cy="56.098999"
       r="56.098"
       style="fill:#04cc47"
       id="circle2" /><polygon
       id="da_1_"
       points="49.004,52.772 35.885,52.772 35.885,36.74 57.368,36.74 64.182,23.701 76.313,23.701 76.313,35.591 63.781,59.612 76.313,59.612 76.313,75.484 55.524,75.484 48.737,88.497 35.885,88.497 35.885,77.916 "
       style="fill:#ffffff" /></g><g
     id="g7"
     transform="translate(0,-12.197998)" /><g
     id="g9"
     transform="translate(0,-12.197998)" /><g
     id="g11"
     transform="translate(0,-12.197998)" /><g
     id="g13"
     transform="translate(0,-12.197998)" /><g
     id="g15"
     transform="translate(0,-12.197998)" /><g
     id="g17"
     transform="translate(0,-12.197998)" /><g
     id="g19"
     transform="translate(0,-12.197998)" /><g
     id="g21"
     transform="translate(0,-12.197998)" /><g
     id="g23"
     transform="translate(0,-12.197998)" /><g
     id="g25"
     transform="translate(0,-12.197998)" /><g
     id="g27"
     transform="translate(0,-12.197998)" /><g
     id="g29"
     transform="translate(0,-12.197998)" /><g
     id="g31"
     transform="translate(0,-12.197998)" /><g
     id="g33"
     transform="translate(0,-12.197998)" /><g
     id="g35"
     transform="translate(0,-12.197998)" /></svg>