<?xml version="1.0" encoding="UTF-8" standalone="no"?>
<svg
   xmlns:dc="http://purl.org/dc/elements/1.1/"
   xmlns:cc="http://creativecommons.org/ns#"
   xmlns:rdf="http://www.w3.org/1999/02/22-rdf-syntax-ns#"
   xmlns:svg="http://www.w3.org/2000/svg"
   xmlns="http://www.w3.org/2000/svg"
   xmlns:sodipodi="http://sodipodi.sourceforge.net/DTD/sodipodi-0.dtd"
   xmlns:inkscape="http://www.inkscape.org/namespaces/inkscape"
   height="100"
   id="Layer_1"
   version="1.1"
   viewBox="0 0 100 100"
   width="100"
   xml:space="preserve"
   sodipodi:docname="github.svg"
   inkscape:version="0.92.2 (5c3e80d, 2017-08-06)"><metadata
     id="metadata9"><rdf:RDF><cc:Work
         rdf:about=""><dc:format>image/svg+xml</dc:format><dc:type
           rdf:resource="http://purl.org/dc/dcmitype/StillImage" /><dc:title></dc:title></cc:Work></rdf:RDF></metadata><defs
     id="defs7" /><sodipodi:namedview
     pagecolor="#ffffff"
     bordercolor="#666666"
     borderopacity="1"
     objecttolerance="10"
     gridtolerance="10"
     guidetolerance="10"
     inkscape:pageopacity="0"
     inkscape:pageshadow="2"
     inkscape:window-width="1920"
     inkscape:window-height="1001"
     id="namedview5"
     showgrid="false"
     inkscape:zoom="4.981409"
     inkscape:cx="34.165215"
     inkscape:cy="32.668481"
     inkscape:window-x="-9"
     inkscape:window-y="-9"
     inkscape:window-maximized="1"
     inkscape:current-layer="Layer_1" /><path
     d="m 29.238333,50.946667 c -0.09,0 0.986667,2.278333 1.016667,2.278333 2.35,4.193333 6.88,6.8 14.521667,7.523333 -1.09,0.813334 -2.4,2.356667 -2.581667,4.14 -1.371667,0.871667 -4.13,1.16 -6.273333,0.495 -3.005,-0.931666 -4.155,-6.776666 -8.653334,-5.943333 -0.973333,0.178333 -0.78,0.81 0.06167,1.348333 1.371667,0.871667 2.661667,1.963334 3.656667,4.285 0.765,1.783334 2.371666,4.968334 7.455,4.968334 2.016666,0 3.43,-0.238334 3.43,-0.238334 0,0 0.03833,4.551667 0.03833,6.321667 0,2.041667 -2.803333,2.616667 -2.803333,3.598333 0,0.388334 0.928333,0.425 1.673333,0.425 1.473333,0 4.538333,-1.208333 4.538333,-3.33 0,-1.685 0.02833,-7.35 0.02833,-8.343333 0,-2.166667 1.181666,-2.853333 1.181666,-2.853333 0,0 0.146667,11.566666 -0.281666,13.12 -0.503334,1.823333 -1.411667,1.565 -1.411667,2.378333 0,1.21 3.69,0.298333 4.913333,-2.36 0.945,-2.065 0.531667,-13.416667 0.531667,-13.416667 l 1.008333,-0.02 c 0,0 0.05667,5.195 0.02167,7.57 -0.035,2.46 -0.205,5.57 1.281667,7.036667 0.976666,0.965 4.14,2.656667 4.14,1.11 0,-0.898333 -1.733334,-1.636667 -1.733334,-4.068333 V 65.78 c 1.385,0 1.176667,3.68 1.176667,3.68 l 0.101667,6.838333 c 0,0 -0.306667,2.49 2.741666,3.531667 1.075,0.371667 3.375,0.471667 3.483334,-0.15 0.108333,-0.621667 -2.77,-1.546667 -2.796667,-3.473333 -0.01667,-1.178334 0.05333,-1.865 0.05333,-6.978334 0,-5.113333 -0.698333,-7.003333 -3.133333,-8.51 7.513333,-0.758333 12.165,-2.585 14.43,-7.476666 0.176667,0.005 0.925,-2.285 0.826667,-2.285 C 72.389996,49.11 72.664996,46.925 72.718329,44.338333 72.704999,37.321667 69.288329,34.84 68.633329,33.675 69.6,28.363333 68.47,25.946667 67.946667,25.116667 c -1.936667,-0.676667 -6.735,1.741666 -9.358334,3.445 -4.273333,-1.228334 -13.31,-1.11 -16.698333,0.316666 -6.251667,-4.398333 -9.56,-3.725 -9.56,-3.725 0,0 -2.138333,3.765 -0.565,9.275 -2.056667,2.576667 -3.59,4.4 -3.59,9.231667 0.0017,2.723333 0.328333,5.16 1.063333,7.286667 z M 50,100 C 22.386667,100 0,77.613333 0,50 0,22.385 22.386667,0 50,0 c 27.613333,0 50,22.385 50,50 0,27.613333 -22.386667,50 -50,50 z"
     style="clip-rule:evenodd;fill:#010101;fill-rule:evenodd;stroke-width:1.66666663"
     id="path2"
     inkscape:connector-curvature="0" /></svg>