<?xml version="1.0" encoding="UTF-8" standalone="no"?>
<svg
   xmlns:dc="http://purl.org/dc/elements/1.1/"
   xmlns:cc="http://creativecommons.org/ns#"
   xmlns:rdf="http://www.w3.org/1999/02/22-rdf-syntax-ns#"
   xmlns:svg="http://www.w3.org/2000/svg"
   xmlns="http://www.w3.org/2000/svg"
   xmlns:sodipodi="http://sodipodi.sourceforge.net/DTD/sodipodi-0.dtd"
   xmlns:inkscape="http://www.inkscape.org/namespaces/inkscape"
   height="100"
   id="Layer_1"
   version="1.1"
   viewBox="0 0 100 100"
   width="100"
   xml:space="preserve"
   sodipodi:docname="linkedin.svg"
   inkscape:version="0.92.2 (5c3e80d, 2017-08-06)"><metadata
     id="metadata9"><rdf:RDF><cc:Work
         rdf:about=""><dc:format>image/svg+xml</dc:format><dc:type
           rdf:resource="http://purl.org/dc/dcmitype/StillImage" /><dc:title></dc:title></cc:Work></rdf:RDF></metadata><defs
     id="defs7" /><sodipodi:namedview
     pagecolor="#ffffff"
     bordercolor="#666666"
     borderopacity="1"
     objecttolerance="10"
     gridtolerance="10"
     guidetolerance="10"
     inkscape:pageopacity="0"
     inkscape:pageshadow="2"
     inkscape:window-width="1920"
     inkscape:window-height="1001"
     id="namedview5"
     showgrid="false"
     inkscape:zoom="3.5223881"
     inkscape:cx="33.5"
     inkscape:cy="33.5"
     inkscape:window-x="-9"
     inkscape:window-y="-9"
     inkscape:window-maximized="1"
     inkscape:current-layer="Layer_1" /><path
     d="m 78.061667,73.561667 v -19.52 c 0,-10.458334 -5.583334,-15.325 -13.026667,-15.325 -6.006667,0 -8.698333,3.305 -10.198333,5.623333 V 39.516667 H 43.52 c 0.15,3.195 0,34.045 0,34.045 H 54.836667 V 54.548333 c 0,-1.015 0.07333,-2.031666 0.373333,-2.758333 0.816667,-2.033333 2.678333,-4.138333 5.803333,-4.138333 4.096667,0 5.733334,3.121666 5.733334,7.696666 v 18.215 h 11.315 z M 31.598333,34.87 c 3.945,0 6.403334,-2.616667 6.403334,-5.885 -0.07333,-3.338333 -2.458334,-5.88 -6.328334,-5.88 -3.87,0 -6.401666,2.54 -6.401666,5.88 0,3.268333 2.456666,5.885 6.255,5.885 z M 50,100 C 22.386667,100 0,77.613333 0,50 0,22.385 22.386667,0 50,0 c 27.613333,0 50,22.385 50,50 0,27.613333 -22.386667,50 -50,50 z M 37.256667,73.561667 v -34.045 h -11.315 v 34.045 z"
     style="clip-rule:evenodd;fill:#007ab9;fill-rule:evenodd;stroke-width:1.66666663"
     id="path2"
     inkscape:connector-curvature="0" /></svg>