<?xml version="1.0" encoding="UTF-8" standalone="no"?>
<svg
   xmlns:dc="http://purl.org/dc/elements/1.1/"
   xmlns:cc="http://creativecommons.org/ns#"
   xmlns:rdf="http://www.w3.org/1999/02/22-rdf-syntax-ns#"
   xmlns:svg="http://www.w3.org/2000/svg"
   xmlns="http://www.w3.org/2000/svg"
   xmlns:sodipodi="http://sodipodi.sourceforge.net/DTD/sodipodi-0.dtd"
   xmlns:inkscape="http://www.inkscape.org/namespaces/inkscape"
   data-name="Layer 1"
   id="Layer_1"
   viewBox="0 0 100 100"
   version="1.1"
   sodipodi:docname="youtube.svg"
   width="100"
   height="100"
   inkscape:version="0.92.2 (5c3e80d, 2017-08-06)">
  <metadata
     id="metadata15">
    <rdf:RDF>
      <cc:Work
         rdf:about="">
        <dc:format>image/svg+xml</dc:format>
        <dc:type
           rdf:resource="http://purl.org/dc/dcmitype/StillImage" />
        <dc:title />
      </cc:Work>
    </rdf:RDF>
  </metadata>
  <sodipodi:namedview
     pagecolor="#ffffff"
     bordercolor="#666666"
     borderopacity="1"
     objecttolerance="10"
     gridtolerance="10"
     guidetolerance="10"
     inkscape:pageopacity="0"
     inkscape:pageshadow="2"
     inkscape:window-width="1920"
     inkscape:window-height="1001"
     id="namedview13"
     showgrid="false"
     inkscape:zoom="1.84375"
     inkscape:cx="64"
     inkscape:cy="64"
     inkscape:window-x="-9"
     inkscape:window-y="-9"
     inkscape:window-maximized="1"
     inkscape:current-layer="Layer_1" />
  <defs
     id="defs4">
    <style
       id="style2">.cls-1{fill:#e21a20;}.cls-2{fill:#fff;fill-rule:evenodd;}</style>
  </defs>
  <circle
     class="cls-1"
     cx="50"
     cy="50"
     id="circle8"
     style="fill:#e21a20;stroke-width:0.78125"
     r="50" />
  <path
     class="cls-2"
     d="M 77.7,41.936 C 77.308,36.536 76.324,30.96 69.42,30.552 a 341.2,341.2 0 0 0 -38.84,0 c -6.904,0.4 -7.888,5.984 -8.28,11.384 a 108,108 0 0 0 0,16.128 c 0.392,5.4 1.376,10.976 8.28,11.384 a 341.2,341.2 0 0 0 38.84,0 c 6.904,-0.4 7.888,-5.984 8.28,-11.384 a 108,108 0 0 0 0,-16.128 z M 44.404,57.2 v -16 l 15.2,8 z"
     id="path10"
     inkscape:connector-curvature="0"
     style="fill:#ffffff;fill-rule:evenodd;stroke-width:0.80000001" />
</svg>
